<?xml version="1.0" encoding="iso-8859-1"?>
<!-- Uploaded to: SVG Repo, www.svgrepo.com, Generator: SVG Repo Mixer Tools -->
<svg fill="#ffcc33" height="800px" width="800px" version="1.1" id="Layer_1" xmlns="http://www.w3.org/2000/svg" xmlns:xlink="http://www.w3.org/1999/xlink" 
	 viewBox="0 0 512 512" xml:space="preserve">
<g>
	<g>
		<g>
			<path d="M192,277.333c-11.776,0-21.333,9.557-21.333,21.333S180.224,320,192,320s21.333-9.557,21.333-21.333
				S203.776,277.333,192,277.333z"/>
			<path d="M85.333,384c11.776,0,21.333-9.557,21.333-21.333s-9.557-21.333-21.333-21.333S64,350.891,64,362.667
				S73.557,384,85.333,384z"/>
			<path d="M192,405.333c-11.776,0-21.333,9.557-21.333,21.333S180.224,448,192,448s21.333-9.557,21.333-21.333
				S203.776,405.333,192,405.333z"/>
			<path d="M490.667,0H256H21.333C9.551,0,0,9.551,0,21.333v469.333C0,502.449,9.551,512,21.333,512H256h234.667
				c11.782,0,21.333-9.551,21.333-21.333V21.333C512,9.551,502.449,0,490.667,0z M42.667,42.667h192v426.667h-192V42.667z
				 M469.333,469.333h-192V42.667h192V469.333z"/>
			<path d="M192,192H85.333C73.551,192,64,201.551,64,213.333c0,11.782,9.551,21.333,21.333,21.333H192
				c11.782,0,21.333-9.551,21.333-21.333C213.333,201.551,203.782,192,192,192z"/>
			<path d="M138.667,64C97.423,64,64,97.423,64,138.667v10.667c0,11.782,9.551,21.333,21.333,21.333H192
				c11.782,0,21.333-9.551,21.333-21.333v-10.667C213.333,97.423,179.91,64,138.667,64z M108.486,128
				c4.391-12.431,16.242-21.333,30.181-21.333c13.939,0,25.79,8.902,30.181,21.333H108.486z"/>
			<path d="M128,320c11.782,0,21.333-9.551,21.333-21.333c0-11.782-9.551-21.333-21.333-21.333H85.333
				c-11.782,0-21.333,9.551-21.333,21.333C64,310.449,73.551,320,85.333,320H128z"/>
			<path d="M192,341.333h-42.667c-11.782,0-21.333,9.551-21.333,21.333S137.551,384,149.333,384H192
				c11.782,0,21.333-9.551,21.333-21.333S203.782,341.333,192,341.333z"/>
			<path d="M128,405.333H85.333c-11.782,0-21.333,9.551-21.333,21.333S73.551,448,85.333,448H128
				c11.782,0,21.333-9.551,21.333-21.333S139.782,405.333,128,405.333z"/>
			<path d="M426.667,256c-11.776,0-21.333,9.557-21.333,21.333s9.557,21.333,21.333,21.333S448,289.109,448,277.333
				S438.443,256,426.667,256z"/>
			<path d="M320,362.667c11.776,0,21.333-9.557,21.333-21.333c0-11.776-9.557-21.333-21.333-21.333s-21.333,9.557-21.333,21.333
				C298.667,353.109,308.224,362.667,320,362.667z"/>
			<path d="M426.667,384c-11.776,0-21.333,9.557-21.333,21.333s9.557,21.333,21.333,21.333S448,417.109,448,405.333
				S438.443,384,426.667,384z"/>
			<path d="M320,298.667h42.667c11.782,0,21.333-9.551,21.333-21.333c0-11.782-9.551-21.333-21.333-21.333H320
				c-11.782,0-21.333,9.551-21.333,21.333C298.667,289.115,308.218,298.667,320,298.667z"/>
			<path d="M426.667,320H384c-11.782,0-21.333,9.551-21.333,21.333c0,11.782,9.551,21.333,21.333,21.333h42.667
				c11.782,0,21.333-9.551,21.333-21.333C448,329.551,438.449,320,426.667,320z"/>
			<path d="M320,426.667h42.667c11.782,0,21.333-9.551,21.333-21.333c0-11.782-9.551-21.333-21.333-21.333H320
				c-11.782,0-21.333,9.551-21.333,21.333C298.667,417.115,308.218,426.667,320,426.667z"/>
			<path d="M426.667,106.667c11.776,0,21.333-9.557,21.333-21.333S438.443,64,426.667,64s-21.333,9.557-21.333,21.333
				S414.891,106.667,426.667,106.667z"/>
			<path d="M320,170.667c11.776,0,21.333-9.557,21.333-21.333S331.776,128,320,128s-21.333,9.557-21.333,21.333
				S308.224,170.667,320,170.667z"/>
			<path d="M426.667,192c-11.776,0-21.333,9.557-21.333,21.333s9.557,21.333,21.333,21.333S448,225.109,448,213.333
				S438.443,192,426.667,192z"/>
			<path d="M320,106.667h42.667c11.782,0,21.333-9.551,21.333-21.333C384,73.551,374.449,64,362.667,64H320
				c-11.782,0-21.333,9.551-21.333,21.333C298.667,97.115,308.218,106.667,320,106.667z"/>
			<path d="M426.667,128H384c-11.782,0-21.333,9.551-21.333,21.333c0,11.782,9.551,21.333,21.333,21.333h42.667
				c11.782,0,21.333-9.551,21.333-21.333C448,137.551,438.449,128,426.667,128z"/>
			<path d="M320,234.667h42.667c11.782,0,21.333-9.551,21.333-21.333c0-11.782-9.551-21.333-21.333-21.333H320
				c-11.782,0-21.333,9.551-21.333,21.333C298.667,225.115,308.218,234.667,320,234.667z"/>
		</g>
	</g>
</g>
</svg>