<?xml version="1.0" encoding="iso-8859-1"?>
<!-- Uploaded to: SVG Repo, www.svgrepo.com, Generator: SVG Repo Mixer Tools -->
<svg fill="#ffcc33" height="800px" width="800px" version="1.1" id="Layer_1" xmlns="http://www.w3.org/2000/svg" xmlns:xlink="http://www.w3.org/1999/xlink" 
	 viewBox="0 0 512.009 512.009" xml:space="preserve">
<g>
	<g>
		<g>
			<path d="M264.54,341.334h-17.067c-4.719,0-8.533,3.823-8.533,8.533s3.814,8.533,8.533,8.533h17.067
				c4.71,0,8.533-3.823,8.533-8.533S269.251,341.334,264.54,341.334z"/>
			<path d="M230.407,238.934h-34.133c-4.719,0-8.533,3.823-8.533,8.533c0,4.71,3.814,8.533,8.533,8.533h8.533
				c0,4.71,3.814,8.533,8.533,8.533c4.71,0,8.533-3.823,8.533-8.533h8.533c4.71,0,8.533-3.823,8.533-8.533
				C238.94,242.756,235.117,238.934,230.407,238.934z"/>
			<path d="M256.007,314.3c-9.139-4.975-16.99-5.769-23.39-2.347c-10.445,5.581-10.743,19.302-10.743,20.745
				c-0.026,0.998-0.393,2.449-0.068,2.483c0,0.017-1.314,0.179-4.651-1.485c-4.216-2.116-9.353-0.393-11.452,3.823
				c-2.108,4.216-0.401,9.336,3.814,11.452c10.206,5.094,16.99,3.302,20.873,0.896c8.303-5.137,8.55-15.863,8.55-16.998
				c0.043-2.5,1.024-5.478,1.732-5.871c0-0.026,2.748-0.862,10.598,4.369c2.867,1.911,6.596,1.911,9.463,0
				c7.842-5.231,10.573-4.395,10.607-4.369c0.708,0.393,1.69,3.371,1.732,5.803c0,1.203,0.239,11.93,8.55,17.067
				c2.057,1.271,4.924,2.372,8.678,2.372c3.337,0,7.381-0.87,12.186-3.268c4.215-2.116,5.922-7.236,3.814-11.452
				c-2.099-4.215-7.211-5.939-11.452-3.823c-2.543,1.28-3.908,1.468-4.122,1.664c-0.29-0.572-0.572-1.775-0.589-2.56
				c0-1.545-0.299-15.266-10.752-20.847C272.997,308.523,265.146,309.316,256.007,314.3z"/>
			<path d="M183.439,58.718c4.215,2.108,9.344,0.384,11.443-3.823c11.648-23.33,35.072-37.828,61.124-37.828
				c26.197,0,49.681,14.601,61.261,38.118c1.493,3.012,4.523,4.753,7.672,4.753c1.263,0,2.551-0.282,3.763-0.879
				c4.224-2.082,5.965-7.194,3.883-11.426C318.095,18.253,288.758,0,256.007,0c-32.572,0-61.833,18.116-76.39,47.275
				C177.5,51.49,179.224,56.61,183.439,58.718z"/>
			<path d="M341.34,34.134c28.228,0,51.2,22.963,51.2,51.2c0,19.61-11.486,37.743-28.655,45.943
				c-0.58,0.222-58.829,22.323-107.878,22.323c-47.462,0-71.774-15.445-72.107-15.65c-3.917-2.603-9.199-1.536-11.793,2.381
				c-2.62,3.925-1.553,9.225,2.364,11.836c1.135,0.751,28.365,18.5,81.536,18.5c52.181,0,111.479-22.502,114.594-23.723
				c23.697-11.264,39.006-35.448,39.006-61.611c0-37.641-30.626-68.267-68.267-68.267c-4.719,0-8.533,3.823-8.533,8.533
				C332.807,30.311,336.621,34.134,341.34,34.134z"/>
			<path d="M145.074,221.867c4.71,0,8.533-3.823,8.533-8.533s-3.823-8.533-8.533-8.533c-18.782,0-25.6,15.309-25.6,25.6v17.067
				c0,11.52,7.646,21.291,18.133,24.491c2.739,16.367,11.213,60.51,25.967,82.645c1.033,1.544,2.108,3.294,3.26,5.171
				c10.769,17.417,30.788,49.826,89.173,49.826c58.377,0,78.396-32.41,89.165-49.826c1.161-1.877,2.236-3.627,3.268-5.171
				c14.746-22.135,23.219-66.278,25.967-82.645c10.479-3.2,18.133-12.971,18.133-24.491V230.4c0-10.291-6.818-25.6-25.6-25.6
				c-4.719,0-8.533,3.823-8.533,8.533s3.814,8.533,8.533,8.533c6.861,0,8.431,4.693,8.533,8.533v17.067
				c0,4.702-3.84,8.533-8.533,8.533c-4.25,0-7.851,3.123-8.457,7.322c-0.077,0.58-8.439,58.095-24.243,81.809
				c-1.135,1.707-2.321,3.61-3.593,5.675c-10.257,16.614-25.779,41.728-74.641,41.728c-48.87,0-64.384-25.114-74.641-41.728
				c-1.28-2.065-2.458-3.968-3.593-5.675c-15.787-23.68-24.166-81.229-24.252-81.809c-0.597-4.198-4.198-7.322-8.448-7.322
				c-4.702,0-8.533-3.831-8.533-8.533v-16.964C136.634,226.56,138.204,221.867,145.074,221.867z"/>
			<path d="M290.14,256c0,4.71,3.814,8.533,8.533,8.533c4.71,0,8.533-3.823,8.533-8.533h8.533c4.71,0,8.533-3.823,8.533-8.533
				c0-4.71-3.823-8.533-8.533-8.533h-34.133c-4.719,0-8.533,3.823-8.533,8.533c0,4.71,3.814,8.533,8.533,8.533H290.14z"/>
			<path d="M136.54,144.384v43.349c0,2.261,0.896,4.437,2.5,6.033c28.1,28.1,73.276,28.1,116.966,28.1s88.866,0,116.966-28.1
				c1.596-1.596,2.5-3.772,2.5-6.033v-16c0-4.71-3.823-8.533-8.533-8.533c-4.719,0-8.533,3.823-8.533,8.533v12.322
				c-23.398,20.745-61.815,20.745-102.4,20.745s-79.002,0-102.4-20.745v-44.817c0-3.285-1.903-6.289-4.872-7.697
				c-17.783-8.465-29.261-26.598-29.261-46.208c0-28.237,22.963-51.2,51.2-51.2c4.71,0,8.533-3.823,8.533-8.533
				c0-4.71-3.823-8.533-8.533-8.533c-37.641,0-68.267,30.626-68.267,68.267C102.407,109.653,115.634,132.267,136.54,144.384z"/>
			<path d="M298.921,494.934h-0.085c-4.71,0-8.482,3.823-8.482,8.533c0,4.71,3.857,8.533,8.567,8.533
				c4.719,0,8.533-3.823,8.533-8.533C307.454,498.756,303.64,494.934,298.921,494.934z"/>
			<path d="M511.572,500.77l-9.532-28.655c-9.054-28.015-20.369-45.244-133.086-45.449c-6.98-3.482-32.333-16.171-32.333-16.171
				c-2.611-1.297-5.7-1.178-8.201,0.316c-0.418,0.247-41.088,24.388-72.414,24.388s-72.004-24.141-72.422-24.388
				c-2.492-1.493-5.581-1.604-8.201-0.316l-32.333,16.179C30.343,426.872,19.019,444.1,9.974,472.115l-9.54,28.655
				c-1.476,4.471,0.939,9.301,5.402,10.795c4.489,1.502,9.31-0.93,10.803-5.402l9.574-28.8
				c6.076-18.782,10.854-33.621,118.775-33.621h0.085c1.323,0,2.628-0.307,3.814-0.896l30.046-15.036
				c11.904,6.579,46.985,24.457,77.073,24.457c30.08,0,65.161-17.877,77.065-24.457c22.033,11.017,29.969,14.916,33.869,15.667
				v0.256c107.989,0,112.777,14.839,118.852,33.63l9.574,28.8c1.203,3.576,4.531,5.837,8.107,5.837c0.888,0,1.801-0.137,2.697-0.435
				C510.642,510.072,513.057,505.242,511.572,500.77z"/>
			<path d="M298.921,460.8h-0.085c-4.71,0-8.482,3.823-8.482,8.533s3.857,8.533,8.567,8.533c4.719,0,8.533-3.823,8.533-8.533
				S303.64,460.8,298.921,460.8z"/>
			<path d="M213.588,460.8h-0.085c-4.71,0-8.482,3.823-8.482,8.533s3.857,8.533,8.568,8.533c4.719,0,8.533-3.823,8.533-8.533
				S218.307,460.8,213.588,460.8z"/>
			<path d="M213.588,494.934h-0.085c-4.71,0-8.482,3.823-8.482,8.533c0,4.71,3.857,8.533,8.568,8.533
				c4.719,0,8.533-3.823,8.533-8.533C222.121,498.756,218.307,494.934,213.588,494.934z"/>
		</g>
	</g>
</g>
</svg>